<!-- Generated by IcoMoon.io -->
<svg version="1.1" xmlns="http://www.w3.org/2000/svg" width="512" height="512" viewBox="0 0 512 512">
<title></title>
<g id="icomoon-ignore">
</g>
<path d="M256 0c-141.385 0-256 114.615-256 256s114.613 256 256 256c141.385 0 256-114.615 256-256s-114.615-256-256-256zM256 416c-24.229 0-47.192-5.398-67.771-15.041l16.581-27.638c15.678 6.856 32.983 10.679 51.19 10.679 46.604 0 87.386-24.909 109.771-62.139l27.441 16.467c-27.982 46.535-78.957 77.672-137.212 77.672zM416 192c0 17.6-14.4 32-32 32h-64c-17.6 0-32-14.4-32-32h-64c0 17.6-14.4 32-32 32h-64c-17.6 0-32-14.4-32-32v-48c0-8.8 7.2-16 16-16h96c8.8 0 16 7.2 16 16v16h64v-16c0-8.8 7.2-16 16-16h96c8.8 0 16 7.2 16 16v48z"></path>
</svg>
